<svg xmlns="http://www.w3.org/2000/svg" viewBox="0 0 105 70" width="105" height="70">
	<style>
		tspan { white-space:pre }
		.shp0 { fill: #fdfdfc } 
		.shp1 { fill: #64ac59 } 
		.shp2 { fill: #f1f7f0 } 
		.shp3 { fill: #ffffff } 
		.shp4 { fill: none;stroke: #ffffff;stroke-linecap:round;stroke-width: 2 } 
	</style>
	<g id="Layer_2">
		<g id="End_of_Year">
			<path id="Layer" fill-rule="evenodd" class="shp0" d="M51.88 79C32.79 79 13.7 79 -5.39 79C-7.23 79 -8 78.85 -8 76.59C-7.9 47.82 -7.9 19.06 -8 -9.71C-8 -11.72 -7.5 -12 -5.65 -12C32.66 -11.93 70.99 -11.93 109.35 -12C111.69 -12 111.72 -11.12 111.71 -9.36C111.67 19.27 111.67 47.9 111.71 76.53C111.71 78.64 111.15 79.01 109.17 79C90.06 78.92 71 79 51.88 79ZM52.67 67.43C68.09 67.43 83.51 67.34 98.93 67.49C102.65 67.49 103.93 66.32 103.93 62.49C103.79 43.82 103.79 25.13 103.93 6.41C103.93 2.67 102.8 1.41 99.01 1.41C68.44 1.53 37.87 1.53 7.3 1.41C3.54 1.41 2.3 2.52 2.3 6.32C2.46 24.99 2.46 43.68 2.3 62.39C2.3 66.47 3.78 67.47 7.59 67.39C22.64 67.28 37.65 67.38 52.67 67.38L52.67 67.43Z" />
			<path id="Layer" fill-rule="evenodd" class="shp1" d="M52.67 67.38C37.67 67.38 22.67 67.28 7.67 67.45C3.86 67.45 2.34 66.45 2.38 62.45C2.55 43.78 2.55 25.09 2.38 6.38C2.38 2.58 3.59 1.46 7.38 1.47C37.95 1.6 68.52 1.6 99.09 1.47C102.88 1.47 104.09 2.7 104.01 6.47C103.86 25.14 103.86 43.83 104.01 62.55C104.01 66.33 102.73 67.55 99.01 67.55C83.51 67.29 68.09 67.38 52.67 67.38ZM96.88 65.21C100.29 65.21 101.73 64.49 101.69 60.7C101.51 43.24 101.51 25.78 101.69 8.32C101.69 4.56 100.57 3.44 96.78 3.46C67.71 3.61 38.64 3.61 9.57 3.46C5.43 3.46 4.45 4.96 4.47 8.65C4.57 25.84 4.61 43.04 4.47 60.22C4.47 64.22 5.86 65.3 9.72 65.22C24.14 65 38.61 65.15 53.08 65.15C67.68 65.15 82.28 65.07 96.88 65.21Z" />
			<path id="Layer" fill-rule="evenodd" class="shp2" d="M53.08 65.15C38.61 65.15 24.14 65.03 9.68 65.23C5.82 65.23 4.39 64.23 4.43 60.23C4.6 43.05 4.56 25.85 4.43 8.66C4.43 4.97 5.43 3.44 9.53 3.47C38.6 3.66 67.67 3.66 96.74 3.47C100.53 3.47 101.74 4.57 101.65 8.33C101.5 25.79 101.5 43.25 101.65 60.71C101.65 64.5 100.25 65.26 96.84 65.22C82.28 65.07 67.68 65.15 53.08 65.15ZM12.99 6.8C9.47 6.8 8.26 7.68 8.3 11.37C8.49 26.91 8.49 42.45 8.3 57.99C8.25 61.75 9.68 62.58 13.07 62.57C39.8 62.48 66.53 62.48 93.25 62.57C96.75 62.57 98.12 61.48 98.09 57.89C97.97 42.35 97.97 26.81 98.09 11.27C98.09 7.93 97 6.76 93.58 6.8C80.22 7 66.86 6.88 53.49 6.88C39.99 6.88 26.49 6.99 12.99 6.8Z" />
			<path id="Layer" fill-rule="evenodd" class="shp1" d="M53.49 6.88C66.86 6.88 80.22 6.98 93.58 6.81C97 6.81 98.12 7.94 98.09 11.28C97.98 26.82 97.98 42.36 98.09 57.9C98.09 61.49 96.75 62.59 93.25 62.58C66.52 62.48 39.79 62.48 13.07 62.58C9.68 62.58 8.25 61.76 8.3 58C8.5 42.46 8.5 26.92 8.3 11.38C8.3 7.69 9.47 6.77 12.99 6.81C26.49 7 40 6.88 53.49 6.88ZM94.49 35.15C94.49 28.06 94.43 20.98 94.49 13.89C94.49 11.21 93.73 9.89 90.78 9.89C83.55 10.01 76.32 9.99 69.1 9.89C66.59 9.89 65.79 10.89 65.81 13.3C65.88 27.35 65.88 41.4 65.81 55.43C65.81 58.25 66.81 59.33 69.61 59.28C76.61 59.16 83.52 59.15 90.47 59.28C93.47 59.34 94.57 58.14 94.47 55.17C94.36 48.51 94.45 41.83 94.45 35.15L94.49 35.15Z" />
			<path id="Layer" fill-rule="evenodd" class="shp2" d="M94.45 35.15C94.45 41.83 94.36 48.51 94.45 55.15C94.51 58.15 93.45 59.32 90.45 59.26C83.5 59.12 76.54 59.13 69.59 59.26C66.75 59.26 65.77 58.26 65.79 55.41C65.89 41.37 65.89 27.33 65.79 13.28C65.79 10.85 66.57 9.84 69.08 9.87C76.3 9.97 83.53 9.99 90.76 9.87C93.76 9.87 94.5 11.18 94.47 13.87C94.39 21 94.45 28.06 94.45 35.15ZM92.84 34.58C92.84 28.04 92.75 21.5 92.84 14.96C92.9 12.23 92.11 10.96 89.16 11.09C83.03 11.25 76.9 11.25 70.77 11.09C68.01 11.02 67.26 12.18 67.28 14.73C67.35 27.94 67.35 41.15 67.28 54.36C67.28 56.77 67.98 57.75 70.55 57.69C76.81 57.53 83.09 57.53 89.35 57.69C92.05 57.76 92.92 56.85 92.86 54.19C92.74 47.65 92.84 41.11 92.84 34.58Z" />
			<path id="Layer" class="shp1" d="M40.55 46.84L32.55 46.84C35.11 45.16 37.78 45.45 40.55 46.84Z" />
			<path id="Layer" fill-rule="evenodd" class="shp1" d="M92.84 34.58C92.84 41.11 92.74 47.65 92.84 54.19C92.9 56.85 92.03 57.76 89.33 57.69C83.07 57.53 76.79 57.53 70.53 57.69C67.96 57.75 67.25 56.77 67.26 54.36C67.34 41.15 67.34 27.94 67.26 14.73C67.26 12.18 67.99 11.02 70.75 11.09C76.87 11.24 83 11.24 89.14 11.09C92.14 11 92.88 12.23 92.82 14.96C92.75 21.5 92.84 28 92.84 34.58ZM71.15 33.09L71.15 34.09L88.65 34.09L88.65 32.86C82.82 32.48 77 32.18 71.15 33.09ZM89.85 22.5C85.37 20.5 73.9 20.67 70.99 22.5L89.85 22.5ZM88.38 28.31L88.44 27.51L71.25 27.51L71.25 28.31L88.38 28.31ZM88.49 40.08L88.49 38.78C82.73 38.78 76.95 38.38 71.2 39.04L71.2 40.04L88.49 40.08ZM88.49 51.58L88.49 50.72L71.26 50.72L71.26 51.58L88.49 51.58ZM71.29 15.65L71.23 16.94C76.98 16.94 82.74 17.3 88.48 16.69L88.48 15.69L71.29 15.65ZM71.61 44.74L71.61 45.62L88.5 45.62L88.5 44.74L71.61 44.74Z" />
			<path id="Layer" class="shp2" d="M71.15 33.09C76.98 32.18 82.82 32.48 88.65 32.86L88.65 34.12L71.16 34.12L71.15 33.09Z" />
			<path id="Layer" class="shp2" d="M89.85 22.5L71 22.5C73.9 20.67 85.37 20.53 89.85 22.5Z" />
			<path id="Layer" class="shp2" d="M88.38 28.31L71.22 28.31L71.22 27.51L88.44 27.51L88.38 28.31Z" />
			<path id="Layer" class="shp2" d="M88.49 40.08L71.23 40.08L71.23 39C76.98 38.34 82.76 38.76 88.52 38.74L88.49 40.08Z" />
			<path id="Layer" class="shp2" d="M88.44 51.58L71.28 51.58L71.28 50.72L88.44 50.72L88.44 51.58Z" />
			<path id="Layer" class="shp2" d="M71.29 15.65L88.48 15.65L88.48 16.65C82.74 17.26 76.98 16.9 71.23 16.9L71.29 15.65Z" />
			<path id="Layer" class="shp2" d="M71.61 44.74L88.5 44.74L88.5 45.62L71.64 45.62L71.61 44.74Z" />
			<path id="Layer" fill-rule="evenodd" class="shp3" d="M38.69 52.07L38.63 52.17L38.63 52.23L36.47 54.39C36.44 54.42 36.4 54.45 36.37 54.48C36.33 54.5 36.29 54.53 36.25 54.55C36.2 54.56 36.16 54.58 36.12 54.59C36.07 54.6 36.03 54.6 35.98 54.6L31.44 54.6C31.39 54.6 31.35 54.59 31.3 54.58C31.26 54.57 31.21 54.56 31.17 54.54C31.12 54.52 31.08 54.5 31.05 54.47C31.01 54.44 30.97 54.41 30.94 54.38L28.79 52.23L28.71 52.23C28.71 52.21 28.71 52.2 28.71 52.18C28.71 52.17 28.71 52.15 28.71 52.13C28.71 52.12 28.71 52.1 28.71 52.09C28.71 52.07 28.71 52.06 28.71 52.04L28.71 44.64C28.52 44.12 28.31 43.62 28.07 43.12C27.83 42.63 27.57 42.14 27.29 41.67C27.01 41.19 26.71 40.74 26.39 40.29C26.06 39.84 25.72 39.41 25.36 39C23.79 37 22.46 35.24 22.46 31.54C22.46 28.58 23.63 25.75 25.73 23.66C27.82 21.56 30.65 20.39 33.61 20.39C36.57 20.39 39.4 21.56 41.49 23.66C43.59 25.75 44.76 28.58 44.76 31.54C44.76 35.24 43.43 36.97 41.86 39C41.51 39.42 41.18 39.85 40.87 40.29C40.56 40.74 40.27 41.2 40 41.67C39.73 42.14 39.48 42.63 39.25 43.12C39.03 43.61 38.82 44.12 38.64 44.63L38.64 52.06L38.69 52.07ZM34.37 36.21C34.37 36.07 34.38 35.93 34.41 35.8C34.44 35.66 34.48 35.52 34.53 35.4C34.59 35.27 34.65 35.15 34.73 35.03C34.81 34.91 34.9 34.81 35 34.71L35 34.66C35.2 34.47 35.44 34.32 35.7 34.21C35.96 34.11 36.23 34.06 36.51 34.07C36.79 34.07 37.06 34.13 37.32 34.24C37.57 34.35 37.81 34.51 38 34.71C38.29 35.01 38.49 35.39 38.57 35.8C38.65 36.21 38.61 36.64 38.45 37.03C38.29 37.42 38.02 37.75 37.67 37.99C37.32 38.22 36.91 38.35 36.49 38.35L35.73 38.35L35.73 43.85L37.46 43.85C37.65 43.34 37.87 42.83 38.1 42.33C38.34 41.84 38.6 41.35 38.87 40.87C39.15 40.4 39.45 39.94 39.76 39.49C40.08 39.04 40.42 38.6 40.77 38.18C42.18 36.35 43.38 34.79 43.38 31.55C43.38 28.96 42.35 26.47 40.52 24.63C38.68 22.8 36.19 21.77 33.6 21.77C31.01 21.77 28.52 22.8 26.68 24.63C24.85 26.47 23.82 28.96 23.82 31.55C23.82 34.79 25.02 36.35 26.43 38.18C26.78 38.6 27.12 39.04 27.44 39.49C27.75 39.94 28.05 40.4 28.33 40.87C28.6 41.35 28.86 41.84 29.1 42.33C29.33 42.83 29.55 43.34 29.74 43.85L31.47 43.85L31.47 38.35L30.7 38.35C29.98 38.36 29.31 38 28.91 37.41C28.51 36.81 28.43 36.05 28.71 35.39C28.98 34.73 29.57 34.25 30.28 34.11C30.98 33.97 31.71 34.2 32.21 34.71C32.31 34.81 32.4 34.91 32.48 35.03C32.56 35.15 32.62 35.27 32.68 35.4C32.73 35.52 32.77 35.66 32.8 35.8C32.83 35.93 32.84 36.07 32.84 36.21L32.84 37L34.36 37L34.36 36.23L34.37 36.21ZM36 35.67C35.97 35.71 35.93 35.75 35.91 35.79C35.88 35.83 35.86 35.87 35.84 35.92C35.82 35.97 35.81 36.01 35.8 36.06C35.79 36.11 35.78 36.16 35.78 36.21L35.78 37L36.54 37C36.59 37 36.64 36.99 36.69 36.98C36.74 36.97 36.79 36.96 36.83 36.94C36.88 36.92 36.92 36.9 36.97 36.87C37.01 36.84 37.05 36.81 37.08 36.77C37.12 36.74 37.15 36.7 37.18 36.66C37.21 36.61 37.23 36.57 37.25 36.52C37.27 36.48 37.29 36.43 37.3 36.38C37.31 36.33 37.31 36.28 37.31 36.23C37.31 36.18 37.3 36.13 37.29 36.08C37.28 36.03 37.27 35.98 37.25 35.94C37.23 35.89 37.21 35.85 37.18 35.81C37.15 35.76 37.12 35.73 37.08 35.69C37.04 35.66 37.01 35.62 36.96 35.6C36.92 35.57 36.88 35.55 36.83 35.53C36.79 35.51 36.74 35.49 36.69 35.48C36.64 35.48 36.59 35.47 36.54 35.47C36.49 35.47 36.45 35.47 36.4 35.48C36.35 35.49 36.31 35.5 36.27 35.52C36.22 35.54 36.18 35.56 36.14 35.58C36.1 35.61 36.06 35.64 36.03 35.67L36 35.67ZM32.85 38.35L32.85 43.85L34.37 43.85L34.37 38.35L32.85 38.35ZM30 50.3L30 51.38L37.32 51.38L37.32 50.3L30 50.3ZM30 48.93L37.32 48.93L37.32 47.86L30 47.86L30 48.93ZM30 46.49L37.32 46.49L37.32 45.22L30 45.22L30 46.49ZM31.46 36.06C31.45 36.01 31.44 35.96 31.42 35.92C31.4 35.87 31.38 35.83 31.35 35.79C31.32 35.74 31.29 35.71 31.25 35.67C31.18 35.6 31.09 35.54 31 35.51C30.91 35.47 30.81 35.45 30.71 35.45C30.61 35.45 30.51 35.47 30.42 35.51C30.33 35.54 30.24 35.6 30.17 35.67C30.13 35.71 30.1 35.74 30.08 35.79C30.05 35.83 30.02 35.87 30.01 35.92C29.99 35.96 29.97 36.01 29.96 36.06C29.95 36.11 29.95 36.16 29.95 36.21C29.95 36.26 29.95 36.31 29.96 36.36C29.97 36.41 29.98 36.46 30 36.5C30.02 36.55 30.05 36.59 30.07 36.64C30.1 36.68 30.13 36.72 30.17 36.75C30.21 36.79 30.24 36.82 30.29 36.85C30.33 36.88 30.37 36.9 30.42 36.92C30.46 36.94 30.51 36.95 30.56 36.96C30.61 36.97 30.66 36.98 30.71 36.98L31.48 36.98L31.48 36.21C31.48 36.16 31.47 36.11 31.46 36.06ZM30.97 52.75L31.77 53.56L35.5 53.56L36.3 52.75L30.97 52.75Z" />
			<path id="Layer" class="shp4" d="M33.85 14.29L33.85 17.11" />
			<path id="Layer" class="shp4" d="M23.82 16.31L25.05 18.85" />
			<path id="Layer" class="shp4" d="M42.65 18.85L43.87 16.31" />
			<path id="Layer" class="shp4" d="M47.74 24.97L50.07 23.36" />
			<path id="Layer" class="shp4" d="M17.63 23.36L19.95 24.97" />
			<path id="Layer" class="shp4" d="M15.5 33.73L18.31 33.43" />
			<path id="Layer" class="shp4" d="M49.38 33.43L52.19 33.73" />
			<path id="Layer" class="shp4" d="M44.99 41.16L47.17 42.94" />
			<path id="Layer" class="shp4" d="M19.58 42.94L21.76 41.16" />
		</g>
	</g>
</svg>