<?xml version="1.0" encoding="utf-8"?>
<!-- Generator: Adobe Illustrator 25.0.0, SVG Export Plug-In . SVG Version: 6.00 Build 0)  -->
<svg version="1.1" id="Layer_1" xmlns="http://www.w3.org/2000/svg" xmlns:xlink="http://www.w3.org/1999/xlink" x="0px" y="0px"
	 viewBox="0 0 419 1314" style="enable-background:new 0 0 419 1314;" xml:space="preserve">
<style type="text/css">
	.st0{opacity:0.1;fill:#2D99C9;enable-background:new    ;}
</style>
<path class="st0" d="M227.5,38.9c0,0,4.9-15.6,41.9-16.9s42.7,23.4,42.7,23.4s48.3,2.4,54.5,27.2s-13,43.8-13,43.8
	s53.9,31.8,51.7,86.7c-3.5,87.3-51.8,103.3-51.8,103.3s24.9,33.3,24.9,90.8c0,64-24.6,83.2-24.6,83.2s52.2,20.3,49.1,94.8
	c-2.4,58-49.1,82.1-49.1,82.1s45.2,74,41.8,175s-41.9,173-41.9,173s66.2,36,60.7,117.8c-5.4,81-80.4,117.8-80.4,117.8
	s-5.2,46.6-66.8,64.9c-50,14.8-92.1-21.7-92.1-21.7s-67.8,32.1-112.2-13.2s3.6-91.8,3.6-91.8s-42.2-111.7-44.3-223
	c-1.9-111.4,30.5-179.2,30.5-179.2s-38-35.4-30-82.6c6.6-39.5,43.2-74.4,43.2-74.4S-1,564.8,4.7,435.9c3.3-73.6,56.2-154,56.2-154
	s-50.6-21.2-48-84.5c3-72,53-100.5,53-100.5S38.3,37,96.7,14.2C176.6-17,227.5,38.9,227.5,38.9z"/>
</svg>
