<?xml version="1.0" encoding="utf-8"?>
<!-- Generator: Adobe Illustrator 24.3.0, SVG Export Plug-In . SVG Version: 6.00 Build 0)  -->
<svg version="1.1" id="Layer_1" xmlns="http://www.w3.org/2000/svg" xmlns:xlink="http://www.w3.org/1999/xlink" x="0px" y="0px"
	 viewBox="0 0 1314.4 419.7" style="enable-background:new 0 0 1314.4 419.7;" xml:space="preserve">
<style type="text/css">
	.st0{opacity:0.1;fill:#2D99C9;}
</style>
<path class="st0" d="M38.5,192.2c0,0-15.6-4.9-16.9-41.9S45,107.6,45,107.6s2.4-48.3,27.2-54.5s43.8,13,43.8,13s31.8-53.9,86.7-51.7
	C290,17.9,306,66.2,306,66.2s33.3-24.9,90.8-24.9c64,0,83.2,24.6,83.2,24.6s20.3-52.2,94.8-49.1c58,2.4,82.1,49.1,82.1,49.1
	s74-45.2,175-41.8S1004.9,66,1004.9,66s36-66.2,117.8-60.7c81,5.4,117.8,80.4,117.8,80.4s46.6,5.2,64.9,66.8
	c14.8,50-21.7,92.1-21.7,92.1s32.1,67.8-13.2,112.2s-91.8-3.6-91.8-3.6s-111.7,42.2-223,44.3C844.3,399.4,776.5,367,776.5,367
	s-35.4,38-82.6,30c-39.5-6.6-74.4-43.2-74.4-43.2s-55.1,66.9-184,61.2c-73.6-3.3-154-56.2-154-56.2s-21.2,50.6-84.5,48
	c-72-3-100.5-53-100.5-53S36.6,381.4,13.8,323C-17.4,243.1,38.5,192.2,38.5,192.2z"/>
</svg>
